<?xml version="1.0" encoding="utf-8"?>
<!-- Generator: Adobe Adobe Illustrator 24.2.0, SVG Export Plug-In . SVG Version: 6.00 Build 0)  -->
<svg version="1.1" id="Chat_Icons" xmlns="http://www.w3.org/2000/svg" xmlns:xlink="http://www.w3.org/1999/xlink" x="0px" y="0px"
	 viewBox="0 0 2000 2000" style="enable-background:new 0 0 2000 2000;" xml:space="preserve">
<style type="text/css">
	.st0{fill:#3F78B7;}
	.st1{fill:#F0C99B;}
	.st2{fill:#F0C099;}
	.st3{fill:#F2C99B;}
	.st4{fill:none;stroke:#000000;stroke-width:20;stroke-linecap:round;stroke-miterlimit:10;}
	.st5{clip-path:url(#SVGID_2_);fill:#54331D;}
	.st6{clip-path:url(#SVGID_2_);fill:#54341D;}
</style>
<g id="Basic_Shape">
	<path id="Body_Shirt" class="st0" d="M533.1,1882.81v-100.82c0-222.34,180.24-402.57,402.57-402.57h101.07
		c222.34,0,402.57,180.24,402.57,402.57v100.82H533.1z"/>
	<path id="Neck" class="st1" d="M1071.21,1199.41v230c0,23.75-38.06,43-85,43s-85-19.25-85-43v-230H1071.21z"/>
	<ellipse id="Ear_Right" class="st2" cx="584.44" cy="1000" rx="80" ry="125"/>
	<ellipse id="Ear_Left" class="st2" cx="1387.98" cy="1000" rx="80" ry="125"/>
	<circle id="Face" class="st3" cx="986.21" cy="912.12" r="415"/>
	<path id="Mouth_Smiling" class="st4" d="M1119.46,1123.32c-2.22,19.17-59.66,76.09-133.25,76.09s-129.19-59.1-133.25-76.09"/>
	<path class="st4" d="M741.12,855.56c33.49-22.55,70.7-39.56,109.67-50.14"/>
	<path class="st4" d="M1231.3,855.56c-33.49-22.55-70.7-39.56-109.67-50.14"/>
	<ellipse id="Eye_Right" cx="822.96" cy="912.12" rx="30" ry="45"/>
	<ellipse id="Eye_Left" cx="1149.46" cy="912.12" rx="30" ry="45"/>
	<g id="Modifiable_Hair_Clip_Group">
		<defs>
			<circle id="SVGID_1_" cx="986.21" cy="912.12" r="415"/>
		</defs>
		<clipPath id="SVGID_2_">
			<use xlink:href="#SVGID_1_"  style="overflow:visible;"/>
		</clipPath>
		<ellipse class="st5" cx="427.87" cy="297.12" rx="520" ry="590"/>
		<path class="st6" d="M2233.1,210.03v112.88c0,276.38-224.05,500.44-500.44,500.44h-619.12c-120.27,0-230.63-42.43-316.93-113.15
			c-2.41-49.63-3.65-100.25-3.65-151.64c0-313.67,46.29-598.38,121.57-807.83c60.99-26.48,128.29-41.15,199.01-41.15h619.12
			C2009.05-290.42,2233.1-66.36,2233.1,210.03z"/>
	</g>
</g>
</svg>
