<?xml version="1.0" encoding="utf-8"?>
<!-- Generator: Adobe Adobe Illustrator 24.2.0, SVG Export Plug-In . SVG Version: 6.00 Build 0)  -->
<svg version="1.1" id="Layer_1" xmlns="http://www.w3.org/2000/svg" xmlns:xlink="http://www.w3.org/1999/xlink" x="0px" y="0px"
	 viewBox="0 0 2000 2000" style="enable-background:new 0 0 2000 2000;" xml:space="preserve">
<style type="text/css">
	.st0{opacity:0.251;}
	.st1{fill:#E6A82A;}
	.st2{fill:#F2DF2F;}
	.st3{fill:#CC9622;}
	.st4{opacity:0.2196;}
	.st5{fill:#E6E6E6;}
	.st6{fill:#FFFFFF;}
	.st7{fill:#CCCCCC;}
	.st8{fill:#B3B3B3;}
</style>
<g id="Up">
	<path class="st0" d="M18.9,405.06V90.56c0-41.28,33.47-74.75,74.75-74.75h314.5c41.28,0,74.75,33.47,74.75,74.75v314.5
		c0,41.28-33.47,74.75-74.75,74.75H93.65C52.36,479.81,18.9,446.34,18.9,405.06z"/>
	<path class="st1" d="M12.9,397.06V82.56c0-41.28,33.47-74.75,74.75-74.75h314.5c41.28,0,74.75,33.47,74.75,74.75v314.5
		c0,41.28-33.47,74.75-74.75,74.75H87.65C46.36,471.81,12.9,438.34,12.9,397.06z"/>
	<path class="st2" d="M419.4,9.81H91.27c-41.63,0-75.37,33.74-75.37,75.37v332.88c-1.96-6.66-3-13.71-3-21V82.56
		c0-41.28,33.46-74.75,74.75-74.75h314.5C408.09,7.81,413.86,8.5,419.4,9.81z"/>
	<path class="st3" d="M70.9,469.06h328.13c41.63,0,75.37-33.74,75.37-75.37V60.81c1.96,6.66,3,13.71,3,21v314.5
		c0,41.28-33.46,74.75-74.75,74.75H88.15C82.21,471.06,76.44,470.37,70.9,469.06z"/>
	<path class="st4" d="M53.68,395.83v-295.6c0-28.28,22.92-51.2,51.2-51.2h295.6c28.28,0,51.2,22.92,51.2,51.2v295.6
		c0,28.28-22.92,51.2-51.2,51.2h-295.6C76.6,447.03,53.68,424.11,53.68,395.83z"/>
	<path class="st5" d="M47.68,389.83V94.23c0-28.28,22.92-51.2,51.2-51.2h295.6c28.28,0,51.2,22.92,51.2,51.2v295.6
		c0,28.28-22.92,51.2-51.2,51.2H98.88C70.6,441.03,47.68,418.11,47.68,389.83z"/>
	<path class="st6" d="M414.06,46.91H97.56c-25.96,0-47,21.05-47,47.01v312.87c-1.87-5.31-2.88-11.02-2.88-16.96V94.23
		c0-28.27,22.92-51.2,51.2-51.2h295.6C401.42,43.03,408.03,44.41,414.06,46.91z"/>
	<path class="st7" d="M79.68,437.91h316.5c25.96,0,47-21.05,47-47.01V78.03c1.87,5.31,2.88,11.02,2.88,16.96v295.6
		c0,28.27-22.92,51.2-51.2,51.2H99.26C92.32,441.79,85.71,440.41,79.68,437.91z"/>
</g>
</svg>
